<svg xmlns="http://www.w3.org/2000/svg" viewBox="0 0 1920 360"><defs><style>.cls-1{opacity:0.12;}.cls-2{fill:none;stroke:#2588eb;stroke-miterlimit:10;stroke-width:10px;}.cls-3{opacity:0.23;}.cls-4{opacity:0.35;}.cls-5{opacity:0.5;}.cls-6{opacity:0.92;}.cls-10,.cls-7,.cls-8,.cls-9{fill:#2588eb;}.cls-8{opacity:0.65;}.cls-9{opacity:0.8;}.cls-10{opacity:0.8;}</style></defs><g id="Ripple_4" data-name="Ripple 4" class="cls-1"><path id="Bottom_4" data-name="Bottom 4" class="cls-2" d="M976.36,343c25.18,0,175.3,4.9,231.22-128.35L1336.73-182.7"/><path id="Bottom_4-2" data-name="Bottom 4" class="cls-2" d="M0,343s927.24,0,976.36,0"/></g><g id="Ripple_3" data-name="Ripple 3" class="cls-3"><path id="Bottom_3" data-name="Bottom 3" class="cls-2" d="M976.56,323.72c23.49,0,169.35,4.79,212.29-132.66L1272.9-182.7"/><path id="Bottom_3-2" data-name="Bottom 3" class="cls-2" d="M0,323.72s927.42,0,976.56,0"/></g><g id="Ripple_2" data-name="Ripple 2" class="cls-4"><path id="Bottom_2" data-name="Bottom 2" class="cls-2" d="M977.91,304.4c21.66,0,162.31,4.67,191-136.73l43.29-314.92"/><path id="Bottom_2-2" data-name="Bottom 2" class="cls-2" d="M0,304.4H977.91"/></g><g id="Ripple_1" data-name="Ripple 1" class="cls-5"><path id="Bottom_1" data-name="Bottom 1" class="cls-2" d="M979.53,284.33H0"/><path id="Bottom_1-2" data-name="Bottom 1" class="cls-2" d="M1166.06-172.81,1146.54,145c-13.69,143.82-147.37,139.37-167,139.35"/></g><g id="D_main" data-name="D main"><g id="Underline" class="cls-6"><path id="Bottom" class="cls-2" d="M600,264H888"/><path id="Bottom-2" data-name="Bottom" class="cls-2" d="M1122,126.87c-.26-141.3,0-368.83,0-368.83"/><path id="Bottom-3" data-name="Bottom" class="cls-2" d="M888,264h93.9c17.27,0,140.37,4.14,140.11-137.17"/></g></g><g id="Samples"><path class="cls-7" d="M684.12,50.85A33.9,33.9,0,0,0,670.83,37a38.17,38.17,0,0,0-19.28-4.86H626.39s0,13.65,16.85,13.65h8.31q9.93,0,15.1,6.43t5.17,18.89v4.33q-.12,12-5.34,18.47t-15.1,6.46h-8.14c-16.85,0-16.85,13.53-16.85,13.53h25.33A38.48,38.48,0,0,0,671,109,33.59,33.59,0,0,0,684.2,95.24,42.78,42.78,0,0,0,688.89,75V71.21A42.64,42.64,0,0,0,684.12,50.85Z"/><path class="cls-8" d="M643.24,45.83v54.58c-16.85,0-16.85,13.53-16.85,13.53V32.18S626.39,45.83,643.24,45.83Z"/><path class="cls-9" d="M729,115.06q-13.37,0-21.76-8.19T698.87,85V83.45a36.69,36.69,0,0,1,3.54-16.37,26,26,0,0,1,10-11.12,28.18,28.18,0,0,1,14.8-3.9q12.46,0,19.62,7.86T754,82.21v6.63H715.33a15.06,15.06,0,0,0,4.74,9.55,14.37,14.37,0,0,0,10,3.59q9.38,0,14.66-6.79l8,8.92a24.27,24.27,0,0,1-9.88,8.06A32.4,32.4,0,0,1,729,115.06Zm-1.86-49.92a10.1,10.1,0,0,0-7.83,3.28q-3,3.27-3.85,9.36h22.58v-1.3q-.12-5.42-2.92-8.38C733.27,66.13,730.62,65.14,727.17,65.14Z"/><path class="cls-9" d="M794.19,115.06q-13.37,0-21.76-8.19T764,85V83.45a36.69,36.69,0,0,1,3.54-16.37,26,26,0,0,1,10-11.12,28.18,28.18,0,0,1,14.8-3.9q12.47,0,19.63,7.86t7.15,22.29v6.63H780.49a15.06,15.06,0,0,0,4.74,9.55,14.37,14.37,0,0,0,10,3.59q9.38,0,14.66-6.79l8,8.92a24.27,24.27,0,0,1-9.88,8.06A32.37,32.37,0,0,1,794.19,115.06Zm-1.86-49.92a10.1,10.1,0,0,0-7.83,3.28q-3,3.27-3.85,9.36h22.58v-1.3q-.12-5.42-2.92-8.38T792.33,65.14Z"/><path class="cls-9" d="M886,84.12q0,14-6.37,22.49a20.42,20.42,0,0,1-17.21,8.45q-9.21,0-14.88-6.4V137.3H831.29V53.18h15.05l.56,6a19.07,19.07,0,0,1,15.39-7.08q11.22,0,17.46,8.31T886,83.28Zm-16.23-1.18q0-8.47-3-13.08a9.77,9.77,0,0,0-8.73-4.6q-7.63,0-10.5,5.84V96q3,6,10.61,6Q869.76,102,869.75,82.94Z"/><path class="cls-7" d="M685.24,145.13a24.85,24.85,0,0,0-10.75-9.58,37,37,0,0,0-16.2-3.37h-31.9s0,13.7,16.85,13.65h15.44q6.23.1,9.77,3.82a13.46,13.46,0,0,1,3.54,9.71q0,5.83-3.51,9t-10.19,3.15h-15c-16.85,0-16.85,13.64-16.85,13.64v28.81h16.85V185.13H658q14.55,0,22.77-6.93T689,159.25A26.65,26.65,0,0,0,685.24,145.13Z"/><path class="cls-8" d="M643.24,145.83v25.66c-16.85,0-16.85,13.64-16.85,13.64V132.18S626.39,145.88,643.24,145.83Z"/><path class="cls-9" d="M700.39,137.46a8,8,0,0,1,2.44-6,10.52,10.52,0,0,1,13.28,0,8.58,8.58,0,0,1,0,12.08,10.43,10.43,0,0,1-13.19,0A8,8,0,0,1,700.39,137.46Zm17.24,76.48H701.34V153.18h16.29Z"/><path class="cls-9" d="M745.93,153.18l.5,7q6.52-8.13,17.47-8.14,9.65,0,14.37,5.67t4.83,17v39.25H766.87V175.08q0-5.16-2.24-7.49c-1.5-1.56-4-2.33-7.47-2.33a11.16,11.16,0,0,0-10.28,5.84v42.84H730.66V153.18Z"/><path class="cls-10" d="M792,183.11q0-14,6.65-22.51t17.94-8.54q10,0,15.56,6.85l0-5.24,15.33-.49v58.74A25.93,25.93,0,0,1,844,225.79a23.23,23.23,0,0,1-10.19,9,35.81,35.81,0,0,1-15.38,3.09,33.28,33.28,0,0,1-13-2.67,23.09,23.09,0,0,1-9.6-6.87l7.18-9.89a19,19,0,0,0,14.72,6.8q6.45,0,10.05-3.46t3.59-9.79v-3.26q-5.61,6.34-14.77,6.34a21.49,21.49,0,0,1-17.71-8.56Q792,197.94,792,183.79Zm16.23,1.21q0,8.27,3.31,13a10.55,10.55,0,0,0,9.1,4.7q7.41,0,10.61-5.57V170.82q-3.25-5.56-10.5-5.56a10.59,10.59,0,0,0-9.18,4.78C809.38,173.22,808.27,178,808.27,184.32Zm23-26.44v-4.7m16.28,0H831.29m0,0h16.28v8.09H831.29Z"/></g></svg>